# xmcd CD database file
#
# Track frame offsets:
#	150
#	29750
#	61658
#	99753
#	114325
#	139803
#	172480
#	202470
#	227580
#	248483
#	273443
#	299913
#
# Disc length: 4415 seconds
#
# Revision: 1
# Processed by: cddbd v1.5.2PL0 Copyright (c) Steve Scherf et al.
# Submitted via: CDex 1.51
#
DISCID=b9113d0c
DTITLE=Freddie Hubbard - Giants Of Jazz - Disc 206,Hub's Nub
DYEAR=1959
DGENRE=Jazz
TTITLE0=I'll never smile again
TTITLE1=You and the night and the music
TTITLE2=Hub-tones
TTITLE3=Devil's island
TTITLE4=All or nothing at all
TTITLE5=Open Sesame
TTITLE6=You're my everything
TTITLE7=Prophet Jennings
TTITLE8=Dead end
TTITLE9=Apothegm (Apothegam
TTITLE10=Lex
TTITLE11=Hub's Nub
EXTD=YEAR: 1959
EXTT0=
EXTT1=
EXTT2=
EXTT3=
EXTT4=
EXTT5=
EXTT6=
EXTT7=
EXTT8=
EXTT9=
EXTT10=
EXTT11=
PLAYORDER=
